<?xml version="1.0" standalone="no"?><svg xmlns="http://www.w3.org/2000/svg" viewBox="0 0 1440 320"><path fill="#8C0335" fill-opacity="1" d="M0,160L20,160C40,160,80,160,120,165.3C160,171,200,181,240,160C280,139,320,85,360,96C400,107,440,181,480,186.7C520,192,560,128,600,117.3C640,107,680,149,720,186.7C760,224,800,256,840,234.7C880,213,920,139,960,101.3C1000,64,1040,64,1080,106.7C1120,149,1160,235,1200,240C1240,245,1280,171,1320,138.7C1360,107,1400,117,1420,122.7L1440,128L1440,320L1420,320C1400,320,1360,320,1320,320C1280,320,1240,320,1200,320C1160,320,1120,320,1080,320C1040,320,1000,320,960,320C920,320,880,320,840,320C800,320,760,320,720,320C680,320,640,320,600,320C560,320,520,320,480,320C440,320,400,320,360,320C320,320,280,320,240,320C200,320,160,320,120,320C80,320,40,320,20,320L0,320Z"></path></svg>